<?xml version="1.0" standalone="no"?>
<svg version="1.0" xmlns="http://www.w3.org/2000/svg"
 width="512.000000pt" height="512.000000pt" viewBox="0 0 512.000000 512.000000"
 preserveAspectRatio="xMidYMid meet">

<g transform="translate(0.000000,512.000000) scale(0.100000,-0.100000)"
fill="#000000" stroke="none">
<path d="M2496 4647 c-13 -13 -31 -49 -40 -80 -30 -103 -119 -189 -229 -221
-67 -19 -92 -45 -92 -97 0 -50 31 -80 104 -103 112 -36 189 -113 218 -218 20
-72 51 -103 103 -103 53 0 83 31 103 104 30 106 108 184 220 217 93 29 128 87
88 151 -16 25 -33 36 -75 48 -113 33 -202 118 -232 222 -22 74 -51 103 -104
103 -30 0 -47 -6 -64 -23z m86 -255 c18 -30 100 -111 133 -130 20 -12 20 -12
0 -24 -26 -14 -129 -117 -143 -143 -12 -20 -12 -20 -24 0 -19 33 -100 115
-129 132 l-28 17 67 62 c37 34 74 73 81 88 18 33 23 33 43 -2z"/>
<path d="M1305 3922 c-34 -7 -64 -43 -79 -96 -33 -113 -109 -191 -215 -222
-95 -29 -131 -86 -96 -153 14 -28 32 -38 106 -61 89 -27 172 -110 199 -199 31
-100 62 -129 126 -117 34 7 74 47 74 75 0 34 59 138 98 173 49 44 84 63 146
79 57 14 86 48 86 98 0 54 -21 77 -97 101 -118 38 -195 116 -228 232 -9 31
-22 61 -29 68 -19 15 -67 27 -91 22z m60 -302 c20 -27 58 -65 86 -85 l49 -37
-38 -28 c-21 -15 -60 -53 -88 -84 l-51 -56 -32 46 c-18 25 -55 62 -82 82 -46
34 -60 52 -40 52 15 0 109 89 131 125 12 19 23 35 25 35 2 0 20 -22 40 -50z"/>
<path d="M3917 3769 c-44 -12 -54 -25 -77 -101 -19 -62 -30 -80 -83 -133 -53
-52 -72 -64 -134 -84 -82 -25 -103 -46 -103 -102 0 -50 29 -84 86 -98 62 -16
97 -35 146 -79 39 -35 98 -139 98 -173 0 -28 40 -68 74 -75 64 -12 95 17 126
117 27 89 110 172 199 199 74 23 92 33 106 61 35 67 -1 124 -97 153 -81 24
-149 81 -187 157 -17 34 -31 70 -31 80 0 25 -46 76 -73 81 -12 2 -35 1 -50 -3z
m97 -337 c22 -24 52 -50 68 -60 15 -9 28 -19 28 -22 0 -3 -22 -22 -49 -42 -27
-20 -64 -57 -82 -82 l-32 -46 -51 56 c-28 31 -67 69 -88 84 l-38 28 49 37 c28
20 67 59 87 87 l38 51 15 -24 c9 -13 34 -43 55 -67z"/>
<path d="M2507 3119 c-60 -14 -90 -33 -220 -141 -397 -331 -811 -746 -1146
-1148 -163 -195 -201 -248 -201 -279 0 -49 56 -84 104 -65 8 3 58 60 111 125
347 433 795 889 1222 1246 135 112 163 127 215 113 100 -29 817 -700 1127
-1055 256 -292 496 -608 705 -925 122 -185 246 -383 246 -394 0 -3 -160 -6
-355 -6 -342 0 -356 -1 -375 -20 -38 -38 -22 -100 31 -119 43 -15 1056 -15
1095 -1 52 20 70 74 38 115 -13 18 -30 21 -136 25 l-120 5 -100 165 c-397 659
-884 1268 -1438 1796 -258 246 -560 503 -635 542 -50 25 -118 34 -168 21z"/>
<path d="M2029 2241 c-49 -40 -18 -131 46 -131 37 0 75 37 75 74 0 64 -71 97
-121 57z"/>
<path d="M3079 2091 c-49 -40 -18 -131 46 -131 37 0 75 37 75 74 0 64 -71 97
-121 57z"/>
<path d="M2585 1625 c-14 -13 -25 -36 -25 -50 0 -33 42 -75 75 -75 33 0 75 42
75 75 0 33 -42 75 -75 75 -14 0 -37 -11 -50 -25z"/>
<path d="M3442 1487 c-29 -31 -28 -72 3 -102 44 -45 109 -22 121 42 13 67 -77
110 -124 60z"/>
<path d="M1963 1430 c-26 -11 -43 -40 -43 -74 0 -63 89 -90 129 -40 27 34 26
57 -1 88 -27 29 -55 38 -85 26z"/>
<path d="M768 1340 c-30 -18 -245 -336 -403 -595 l-92 -150 -121 -5 c-106 -4
-123 -7 -136 -25 -35 -46 -6 -109 56 -120 18 -3 836 -4 1816 -3 l1784 3 24 28
c29 34 30 56 3 91 l-20 26 -1615 0 c-888 0 -1614 2 -1614 5 0 15 239 384 390
601 35 51 41 67 35 92 -3 17 -12 35 -19 41 -20 16 -69 22 -88 11z"/>
<path d="M3892 1037 c-29 -31 -28 -72 3 -102 44 -45 109 -22 121 42 13 67 -77
110 -124 60z"/>
<path d="M2850 980 c-11 -11 -20 -33 -20 -49 0 -71 80 -101 127 -47 28 33 29
56 2 90 -26 33 -79 36 -109 6z"/>
<path d="M1126 909 c-50 -40 -22 -129 42 -129 81 0 108 106 36 139 -35 16 -48
14 -78 -10z"/>
</g>
</svg>
