<?xml version="1.0" standalone="no"?>

<svg version="1.0" xmlns="http://www.w3.org/2000/svg"
 width="512.000000pt" height="512.000000pt" viewBox="0 0 512.000000 512.000000"
 preserveAspectRatio="xMidYMid meet">

<g transform="translate(0.000000,512.000000) scale(0.100000,-0.100000)"
fill="#000000" stroke="none">
<path d="M251 5106 c-47 -26 -50 -46 -51 -284 0 -251 4 -271 65 -293 l35 -13
0 -158 c0 -100 4 -166 12 -183 23 -52 44 -55 338 -55 294 0 315 3 338 55 8 16
12 82 12 180 0 85 3 155 7 155 4 0 201 -63 438 -141 236 -77 505 -165 598
-195 l167 -55 0 -1177 1 -1177 -93 -582 -93 -583 -83 0 c-93 0 -131 -14 -150
-55 -17 -36 -17 -454 0 -490 25 -56 7 -55 768 -55 761 0 743 -1 768 55 17 36
17 454 0 490 -19 41 -57 55 -150 55 l-83 0 -93 583 -93 582 1 1177 0 1176 140
47 c104 35 145 53 160 72 38 49 20 121 -38 149 -35 16 -37 16 -181 -31 -230
-75 -249 -83 -266 -115 -13 -25 -15 -185 -15 -1210 l0 -1180 -150 0 -150 0 0
1180 c0 893 -3 1185 -12 1205 -7 15 -24 33 -38 40 -15 8 -323 111 -686 229
l-658 216 -308 0 -308 0 0 100 0 100 343 0 342 0 729 -250 c401 -138 737 -250
746 -250 9 0 160 49 336 109 175 60 504 173 731 250 l412 141 340 0 341 0 0
-100 0 -100 -307 0 c-304 0 -309 0 -388 -26 -96 -31 -135 -66 -135 -120 0 -26
8 -43 29 -65 34 -34 74 -38 141 -14 23 8 46 15 51 15 5 0 9 -70 9 -155 0 -171
8 -202 55 -223 18 -8 108 -12 295 -12 187 0 277 4 295 12 48 21 55 52 55 225
l0 159 35 13 c60 22 65 42 65 291 0 240 -5 265 -55 288 -19 9 -140 12 -438 12
l-413 0 -664 -226 c-366 -125 -693 -236 -727 -247 l-61 -21 -64 21 c-34 12
-362 123 -727 247 l-663 226 -417 0 c-326 -1 -421 -4 -440 -14z m549 -686 l0
-100 -150 0 -150 0 0 100 0 100 150 0 150 0 0 -100z m3820 0 l0 -100 -150 0
-150 0 0 100 0 100 150 0 150 0 0 -100z m-1815 -3267 c43 -274 81 -510 83
-526 l4 -27 -332 0 -332 0 4 27 c2 16 40 252 83 526 l80 497 165 0 165 0 80
-497z m335 -853 l0 -100 -580 0 -580 0 0 100 0 100 580 0 580 0 0 -100z"/>
<path d="M3524 4531 c-30 -13 -64 -59 -64 -88 0 -13 7 -37 15 -53 44 -85 169
-60 182 36 4 35 1 46 -23 73 -31 33 -76 46 -110 32z"/>
</g>
</svg>
