<?xml version="1.0" standalone="no"?>
<svg version="1.0" xmlns="http://www.w3.org/2000/svg"
 width="512.000000pt" height="512.000000pt" viewBox="0 0 512.000000 512.000000"
 preserveAspectRatio="xMidYMid meet">

<g transform="translate(0.000000,512.000000) scale(0.100000,-0.100000)"
fill="#000000" stroke="none">
<path d="M945 5114 c-307 -50 -550 -254 -651 -549 -26 -75 -28 -91 -28 -245 0
-154 2 -170 28 -245 76 -221 222 -384 429 -480 120 -55 186 -69 332 -69 146 0
212 14 332 69 207 96 353 259 429 480 26 75 28 91 28 245 0 154 -2 170 -28
245 -91 264 -296 458 -561 529 -60 17 -254 29 -310 20z"/>
<path d="M3624 5105 c-212 -46 -392 -221 -449 -435 -19 -71 -19 -229 0 -300
83 -311 393 -502 707 -436 216 46 395 219 453 436 19 71 19 229 0 300 -83 312
-396 504 -711 435z"/>
<path d="M2157 3294 c-290 -65 -506 -271 -577 -551 -27 -103 -27 -262 -1 -366
67 -260 266 -464 526 -539 113 -32 287 -32 400 0 260 75 459 279 526 539 26
103 26 263 0 366 -66 258 -266 464 -521 537 -100 29 -261 35 -353 14z"/>
<path d="M3955 2104 c-307 -50 -550 -254 -651 -549 -26 -75 -28 -91 -28 -245
0 -154 2 -170 28 -245 91 -266 294 -456 566 -531 90 -25 300 -25 390 0 272 75
475 265 566 531 26 75 28 91 28 245 0 154 -2 170 -28 245 -91 264 -296 458
-561 529 -60 17 -254 29 -310 20z"/>
<path d="M724 1185 c-212 -46 -392 -221 -449 -435 -19 -71 -19 -229 0 -300 83
-311 393 -502 707 -436 216 46 395 219 453 436 19 71 19 229 0 300 -83 312
-396 504 -711 435z"/>
</g>
</svg>
