<?xml version="1.0" standalone="no"?>
<svg version="1.0" xmlns="http://www.w3.org/2000/svg"
 width="512.000000pt" height="512.000000pt" viewBox="0 0 512.000000 512.000000"
 preserveAspectRatio="xMidYMid meet">

<g transform="translate(0.000000,512.000000) scale(0.100000,-0.100000)"
fill="#000000" stroke="none">
<path d="M975 5026 c-37 -17 -70 -52 -84 -89 -16 -42 -14 -241 3 -280 17 -43
68 -85 111 -93 l35 -6 0 -99 0 -98 -77 -59 c-97 -73 -154 -135 -187 -201 -52
-101 -56 -139 -56 -492 l0 -327 -109 -4 c-118 -3 -141 -12 -185 -72 -18 -23
-22 -45 -24 -144 -2 -67 1 -132 7 -153 14 -46 69 -96 116 -105 l35 -6 0 -959
0 -958 -189 -3 c-207 -3 -216 -6 -265 -72 -20 -26 -21 -40 -21 -326 0 -286 1
-300 21 -326 11 -15 33 -37 48 -48 27 -21 35 -21 806 -21 771 0 779 0 806 21
15 11 37 33 48 48 20 26 21 43 24 321 l3 293 53 50 c58 55 105 71 155 54 16
-6 73 -43 125 -83 96 -72 96 -72 90 -108 -11 -60 -26 -78 -114 -138 -61 -42
-93 -72 -115 -107 -29 -48 -30 -52 -33 -203 l-4 -153 1406 0 c1332 0 1406 1
1406 18 0 9 -11 82 -25 161 l-24 144 35 40 c95 105 176 263 216 424 33 132 31
350 -4 484 -29 107 -76 216 -131 301 -19 31 -171 218 -336 417 l-301 361 0
130 0 131 38 67 c74 131 109 245 119 388 l6 90 -40 32 c-127 100 -336 158
-610 169 l-153 6 0 -80 0 -80 -52 -12 c-29 -6 -72 -21 -95 -32 l-42 -20 -37
28 -37 28 -372 3 -372 3 -39 40 -38 39 77 77 77 77 237 -33 c131 -18 248 -35
259 -38 20 -4 22 2 33 73 6 42 10 79 8 81 -2 2 -90 16 -196 30 -105 15 -191
30 -191 33 0 3 20 26 45 50 l45 44 238 -33 c130 -18 247 -35 258 -38 20 -4 22
2 33 73 6 42 10 79 8 81 -2 2 -90 16 -196 30 -105 15 -191 30 -191 33 0 3 22
28 49 54 l49 49 369 33 c237 22 383 39 410 50 54 20 116 90 133 149 25 90 -14
201 -88 250 -20 13 -101 49 -179 80 l-142 56 -56 142 c-31 78 -67 159 -80 179
-49 74 -160 113 -250 88 -59 -17 -129 -79 -149 -133 -11 -27 -28 -174 -50
-410 l-33 -368 -49 -50 c-26 -27 -51 -49 -54 -49 -3 0 -18 86 -33 191 -14 106
-28 194 -30 196 -4 3 -148 -15 -153 -20 -1 -1 14 -118 34 -259 l36 -258 -44
-45 c-24 -25 -47 -45 -50 -45 -3 0 -18 86 -33 191 -14 106 -29 194 -31 196 -4
4 -147 -15 -152 -20 -1 -1 14 -118 34 -260 l37 -257 -77 -77 -77 -77 -40 37
c-75 68 -112 81 -243 85 l-118 4 0 167 c0 286 -43 381 -242 533 l-78 59 0 98
0 99 35 6 c47 9 102 59 116 105 6 21 9 86 7 153 -3 126 -11 147 -72 192 -26
20 -41 21 -394 23 -291 2 -373 0 -397 -11z m705 -226 l0 -80 -320 0 -320 0 0
80 0 80 320 0 320 0 0 -80z m1697 65 c13 -9 46 -77 88 -182 37 -93 71 -172 76
-178 5 -5 87 -41 181 -80 135 -55 176 -76 187 -96 17 -31 8 -74 -19 -89 -11
-6 -116 -20 -233 -30 -116 -11 -237 -22 -267 -25 l-55 -7 78 79 c42 43 77 83
77 88 0 13 -92 105 -104 105 -6 0 -46 -35 -89 -77 l-79 -78 6 50 c3 28 13 129
21 225 22 250 25 270 46 291 23 23 57 24 86 4z m-1857 -422 c0 -154 6 -165
142 -270 96 -75 110 -90 140 -150 31 -63 33 -75 37 -191 l3 -124 -30 16 c-17
9 -54 21 -82 27 l-50 11 0 79 0 79 -320 0 -320 0 0 -229 0 -229 -62 -91 c-41
-60 -68 -91 -80 -91 -18 0 -19 14 -16 338 l3 337 33 68 c30 60 44 75 140 150
136 105 142 116 142 270 l0 117 160 0 160 0 0 -117z m0 -707 c0 -17 -18 -42
-56 -78 -71 -67 -70 -67 -176 -93 l-88 -23 0 109 0 109 160 0 160 0 0 -24z
m203 -147 c12 -7 43 -31 68 -54 83 -77 115 -88 276 -94 l143 -6 77 -77 78 -78
-628 0 -627 0 25 39 c31 46 46 53 178 87 137 34 177 54 245 117 84 79 115 92
165 66z m2245 -335 c93 -17 245 -68 262 -89 24 -29 -28 -224 -86 -322 l-25
-43 -115 0 -115 0 -25 56 c-43 99 -76 227 -98 383 l-7 43 63 -7 c35 -3 100
-13 146 -21z m-688 -214 l0 -80 -1360 0 -1360 0 0 80 0 80 1360 0 1360 0 0
-80z m346 53 c16 -74 56 -214 69 -246 8 -20 15 -39 15 -42 0 -3 -31 -5 -70 -5
l-70 0 -60 119 -59 120 32 27 c38 32 83 53 114 54 17 0 24 -7 29 -27z m-218
-328 c31 -64 32 -69 32 -201 l0 -135 -80 -95 -80 -95 0 280 c0 261 1 281 18
281 9 0 28 7 42 14 14 8 27 14 30 15 3 1 20 -28 38 -64z m-288 -342 l0 -378
-101 -120 c-56 -66 -128 -155 -160 -198 l-58 -78 -3 445 c-3 431 -4 445 -24
472 -47 64 -63 69 -214 69 -151 0 -167 -5 -214 -69 -21 -27 -21 -41 -26 -637
l-5 -609 -77 77 -78 78 -2 532 c-3 519 -3 532 -24 559 -47 64 -63 69 -214 69
-151 0 -167 -5 -214 -69 -20 -26 -21 -43 -24 -322 l-3 -294 -29 15 c-16 8 -52
20 -79 26 l-50 10 -3 269 c-3 253 -4 270 -24 296 -47 64 -63 69 -214 69 -151
0 -167 -5 -214 -69 -20 -27 -21 -41 -24 -479 l-3 -451 -53 -56 c-80 -83 -101
-129 -101 -220 0 -91 21 -137 101 -220 l54 -57 0 -101 0 -102 -160 0 -160 0 0
960 0 960 1200 0 1200 0 0 -377z m960 137 l0 -80 -240 0 -240 0 0 80 0 80 240
0 240 0 0 -80z m-2721 -347 l-2 -268 -78 -74 -79 -75 0 342 0 342 80 0 80 0
-1 -267z m641 -155 l0 -423 -80 80 -80 80 0 342 0 343 80 0 80 0 0 -422z m640
-220 l0 -643 -68 -32 c-48 -22 -71 -28 -79 -21 -10 8 -13 155 -13 674 l0 664
80 0 80 0 0 -642z m1685 241 c362 -435 414 -501 454 -578 109 -209 129 -451
56 -671 -27 -79 -94 -212 -110 -216 -6 -2 -19 11 -30 28 -37 57 -84 86 -190
114 -55 14 -106 31 -112 36 -7 6 -25 37 -40 70 -48 108 -154 178 -269 178 -71
0 -146 -35 -219 -101 -36 -32 -72 -59 -79 -59 -27 0 -54 35 -66 85 -34 146
-171 246 -320 232 -63 -5 -104 -24 -217 -97 -42 -28 -87 -53 -100 -56 -44 -11
-92 6 -143 51 -28 25 -68 54 -90 65 -35 18 -40 25 -40 54 0 53 47 203 90 286
41 78 69 113 435 554 l220 265 285 0 285 0 200 -240z m-2757 -253 c15 -8 202
-190 415 -404 l389 -389 -25 -37 c-14 -20 -28 -50 -32 -66 -4 -17 -10 -30 -14
-30 -3 0 -38 23 -76 51 -97 70 -127 82 -215 83 -95 0 -150 -23 -229 -99 l-58
-55 -124 0 -124 0 -215 215 -215 215 0 50 0 50 195 196 c107 108 209 205 225
215 36 23 67 24 103 5z m1188 -796 c14 -6 48 -30 75 -54 93 -83 198 -112 301
-82 31 9 97 43 147 76 101 66 125 75 176 66 60 -12 92 -49 117 -134 35 -119
111 -182 219 -182 49 0 128 41 174 90 69 72 120 86 184 52 25 -14 45 -39 75
-97 51 -97 91 -126 226 -160 51 -13 100 -30 108 -39 13 -13 62 -255 62 -308 0
-17 -65 -18 -1230 -18 l-1230 0 0 46 c0 62 10 77 93 133 80 54 127 101 144
147 7 16 24 90 38 164 14 74 31 147 36 162 10 23 106 97 179 135 30 16 69 17
106 3z m-1531 -130 c18 -19 17 -20 -3 -20 -15 0 -22 6 -22 20 0 11 2 20 3 20
2 0 12 -9 22 -20z m-825 -420 l0 -240 -80 0 -80 0 0 240 0 240 80 0 80 0 0
-240z m330 226 c0 -7 16 -45 35 -83 43 -86 103 -144 193 -186 61 -29 76 -32
162 -32 86 0 101 3 162 32 90 42 150 100 193 186 19 38 35 76 35 83 0 11 20
14 85 14 l85 0 0 -240 0 -240 -560 0 -560 0 0 240 0 240 85 0 c65 0 85 -3 85
-14z m610 9 c0 -19 -35 -68 -70 -97 -89 -77 -211 -77 -300 0 -35 29 -70 78
-70 97 0 3 99 5 220 5 121 0 220 -2 220 -5z"/>
<path d="M4350 1685 c-30 -25 -56 -50 -58 -55 -2 -5 31 -50 72 -99 103 -121
138 -177 167 -263 13 -40 24 -75 26 -76 2 -4 146 17 151 22 9 10 -34 140 -69
207 -32 61 -161 234 -222 296 -10 10 -24 3 -67 -32z"/>
<path d="M4554 1021 c-3 -14 -10 -45 -16 -69 -6 -23 -9 -44 -7 -45 10 -8 122
-47 135 -47 13 0 27 39 43 124 l8 46 -31 4 c-17 3 -52 7 -79 9 -44 4 -48 3
-53 -22z"/>
<path d="M1520 1507 c-49 -16 -133 -102 -148 -153 -28 -94 -8 -169 63 -239
101 -102 229 -102 330 0 98 97 101 222 8 325 -65 72 -158 97 -253 67z m135
-172 c16 -15 25 -36 25 -55 0 -19 -9 -40 -25 -55 -15 -16 -36 -25 -55 -25 -19
0 -40 9 -55 25 -16 15 -25 36 -25 55 0 19 9 40 25 55 15 16 36 25 55 25 19 0
40 -9 55 -25z"/>
<path d="M3280 720 l0 -80 80 0 80 0 0 80 0 80 -80 0 -80 0 0 -80z"/>
<path d="M2732 622 c-55 -22 -107 -72 -138 -134 -14 -28 -24 -51 -22 -53 9 -8
129 -65 136 -65 5 0 17 18 27 41 27 60 47 69 142 69 l83 0 0 80 0 80 -92 -1
c-63 0 -107 -6 -136 -17z"/>
<path d="M3920 480 l0 -80 80 0 80 0 0 80 0 80 -80 0 -80 0 0 -80z"/>
</g>
</svg>
